# xmcd
#
# Track frame offsets: 
#        150
#        11999
#        22986
#        34063
#        44823
#        54434
#        62742
#        71933
#        81431
#        91038
#
# Disc length: 1352 seconds
#
# Revision: 0
# Processed by: cddbd v1.5.2PL0 Copyright (c) Steve Scherf et al.
# Submitted via: ExactAudioCopyFreeDBPlugin 1.0
#
DISCID=8705460a
DTITLE=Glen Campbell - 1964 - The Astounding 12-String Guitar of Glen 
DTITLE=Campbel
DYEAR=1964
DGENRE=country
TTITLE0=Lonesome Twelve
TTITLE1=Puff the Magic Dragon
TTITLE2=Blowin' in the Wind
TTITLE3=500 Miles
TTITLE4=Walkin' Down the Line
TTITLE5=12-String Special
TTITLE6=Green, Green
TTITLE7=Bull Durham
TTITLE8=La Bamba
TTITLE9=This Land Is Your Land
EXTD=
EXTT0=
EXTT1=
EXTT2=
EXTT3=
EXTT4=
EXTT5=
EXTT6=
EXTT7=
EXTT8=
EXTT9=
PLAYORDER=
